<?xml version="1.0" encoding="UTF-8" standalone="no"?>
<!-- Created with Inkscape (http://www.inkscape.org/) -->

<svg
   xmlns:dc="http://purl.org/dc/elements/1.1/"
   xmlns:cc="http://creativecommons.org/ns#"
   xmlns:rdf="http://www.w3.org/1999/02/22-rdf-syntax-ns#"
   xmlns:svg="http://www.w3.org/2000/svg"
   xmlns="http://www.w3.org/2000/svg"
   xmlns:sodipodi="http://sodipodi.sourceforge.net/DTD/sodipodi-0.dtd"
   xmlns:inkscape="http://www.inkscape.org/namespaces/inkscape"
   width="1920"
   height="1080"
   viewBox="0 0 507.99999 285.75001"
   version="1.1"
   id="svg8"
   inkscape:export-filename="C:\Users\Yusuf\Desktop\bitmap.png"
   inkscape:export-xdpi="96"
   inkscape:export-ydpi="96"
   inkscape:version="0.92.4 (5da689c313, 2019-01-14)">
  <defs
     id="defs2" />
  <sodipodi:namedview
     id="base"
     pagecolor="#ffffff"
     bordercolor="#666666"
     borderopacity="1.0"
     inkscape:pageopacity="0.0"
     inkscape:pageshadow="2"
     inkscape:zoom="0.35"
     inkscape:cx="287.69785"
     inkscape:cy="605.19568"
     inkscape:document-units="px"
     inkscape:current-layer="layer1"
     showgrid="false"
     units="px"
     inkscape:window-width="1920"
     inkscape:window-height="1017"
     inkscape:window-x="-8"
     inkscape:window-y="-8"
     inkscape:window-maximized="1" />
  <metadata
     id="metadata5">
    <rdf:RDF>
      <cc:Work
         rdf:about="">
        <dc:format>image/svg+xml</dc:format>
        <dc:type
           rdf:resource="http://purl.org/dc/dcmitype/StillImage" />
        <dc:title></dc:title>
      </cc:Work>
    </rdf:RDF>
  </metadata>
  <g
     inkscape:label="Layer 1"
     inkscape:groupmode="layer"
     id="layer1"
     transform="translate(0,-11.249974)">
    <rect
       style="opacity:1;fill:#00c3e5;fill-opacity:0.98994978;stroke:none;stroke-width:1.5875001;stroke-linecap:butt;stroke-miterlimit:4;stroke-dasharray:none;stroke-opacity:0.99497483"
       id="rect1512"
       width="508.15536"
       height="285.99368"
       x="-0.023623513"
       y="11.249973" />
    <path
       style="opacity:1;fill:#00c3e5;fill-opacity:0.98994978;stroke:none;stroke-width:1.5875001;stroke-linecap:butt;stroke-miterlimit:4;stroke-dasharray:none;stroke-opacity:0.99497483"
       id="path1514"
       d="m 17.014302,226.63321 c 1.275439,0.17839 2.563361,0.24104 3.849279,0.28545 1.401768,0.18894 2.809964,0.29885 4.222435,0.36098 1.801411,0.0613 3.604282,0.0678 5.406571,0.0659 1.86019,-0.001 3.720375,0.002 5.580563,-0.002 1.753647,8e-4 3.50729,-0.004 5.260932,-0.006 1.542286,0.0238 3.075991,0.009 4.611984,-0.12856 1.34437,-0.0774 2.672017,-0.25569 4.00517,-0.43535 1.172367,-0.1014 2.318031,-0.36917 3.462378,-0.62642 0.994828,-0.20315 2.008661,-0.35053 2.981232,-0.64646 0.865778,-0.17522 1.705838,-0.42515 2.562416,-0.63781 0.603083,-0.28327 1.217824,-0.55621 1.860079,-0.73891 0.682336,-0.22393 1.324486,-0.54637 2.008206,-0.76233 0.110926,-0.0247 0.22185,-0.0493 0.332777,-0.074 0,0 -4.450395,3.42365 -4.450395,3.42365 v 0 c -0.10269,0.0354 -0.20538,0.0708 -0.30807,0.10624 -0.663644,0.27144 -1.338736,0.50823 -2.014154,0.74924 -0.624208,0.24016 -1.235321,0.52221 -1.878653,0.70725 -0.844418,0.23393 -1.703803,0.3946 -2.548162,0.62905 -0.991209,0.22678 -1.989342,0.41926 -2.985241,0.6235 -1.148377,0.26205 -2.313197,0.44588 -3.483423,0.57954 -1.330698,0.17627 -2.663486,0.30795 -4.003037,0.39876 -1.542418,0.11613 -3.086018,0.094 -4.632031,0.0868 -1.748664,-0.002 -3.497329,-0.007 -5.245995,-0.004 -1.860328,-0.002 -3.720645,0.005 -5.580972,5.3e-4 -1.81442,-0.009 -3.629553,-0.002 -5.443013,-0.0708 -1.414793,-0.0731 -2.822049,-0.21144 -4.231721,-0.34804 -1.309009,-0.0561 -2.615355,-0.15471 -3.918168,-0.29503 0,0 4.579013,-3.24062 4.579013,-3.24062 z"
       inkscape:connector-curvature="0" />
    <path
       style="opacity:1;fill:#00c3e5;fill-opacity:0.98994978;stroke:none;stroke-width:1.5875001;stroke-linecap:butt;stroke-miterlimit:4;stroke-dasharray:none;stroke-opacity:0.99497483"
       id="path1516"
       d="m 7.1904634,217.79819 c 1.4419033,-0.27385 2.8907096,-0.53138 4.3161496,-0.88272 1.342911,-0.24458 2.662768,-0.589 3.993837,-0.88815 1.553729,-0.39322 3.107909,-0.78145 4.657693,-1.19044 2.030536,-0.59823 4.08152,-1.12699 6.151993,-1.56818 2.318755,-0.55704 4.646551,-1.07532 6.962775,-1.64279 2.278983,-0.53641 4.584266,-0.94062 6.88435,-1.37193 2.037366,-0.46731 4.09738,-0.83186 6.116505,-1.37535 1.757355,-0.41194 3.51943,-0.79887 5.281917,-1.18802 1.156221,-0.21228 2.283362,-0.53746 3.450109,-0.69547 0.795737,-0.10527 1.569812,-0.31057 2.371293,-0.398 0.66865,-0.0874 1.304978,-0.30231 1.981822,-0.38083 0.725559,-0.0659 1.454899,-0.0669 2.182818,-0.0702 0.755743,-0.001 1.511485,0.001 2.267225,0.002 0.126125,1.5e-4 0.252251,2.7e-4 0.378376,5.3e-4 0,0 -4.536922,3.29541 -4.536922,3.29541 v 0 c -0.126143,-1.7e-4 -0.252286,-2.6e-4 -0.378431,-5.3e-4 -0.754684,-0.001 -1.509398,-0.004 -2.264058,0.004 -0.715264,0.0112 -1.433708,0.0232 -2.14163,0.13683 -0.661509,0.12322 -1.306201,0.32936 -1.982116,0.36783 -0.787373,0.12121 -1.560896,0.31834 -2.354662,0.39933 -1.138026,0.19075 -2.253588,0.48791 -3.388759,0.69458 -1.751108,0.37874 -3.503796,0.7493 -5.24228,1.18386 -2.024719,0.50067 -4.074663,0.89176 -6.114296,1.32615 -2.295165,0.42316 -4.590172,0.84945 -6.861112,1.39128 -2.321348,0.55581 -4.646607,1.09565 -6.97167,1.63543 -2.07553,0.47344 -4.131621,1.02272 -6.176679,1.61348 -1.563712,0.40376 -3.12364,0.82116 -4.693939,1.19898 -1.3251612,0.31681 -2.6552529,0.60709 -3.989277,0.88372 -1.4600487,0.31332 -2.9223587,0.62379 -4.3967052,0.86249 0,0 4.4956736,-3.34292 4.4956736,-3.34292 z"
       inkscape:connector-curvature="0" />
    <path
       style="fill:#00a904;stroke:#000000;stroke-width:0.26458335px;stroke-linecap:butt;stroke-linejoin:miter;stroke-opacity:1;fill-opacity:0.98994976"
       d="m -2.1809951e-7,189.27676 c 0,0 0.55080293809951,-9.21143 13.41815521809951,-12.28423 12.662202,-3.02381 19.574535,0.63912 41.766371,-11.15029 24.190476,-12.85119 45.588404,-7.83864 66.712794,-6.61459 9.64375,0.55881 28.0705,18.6934 75.40626,37.23066 46.26179,18.11668 51.04184,10.99537 77.48511,-3.02381 26.4852,-14.04141 30.77331,-15.20614 43.46726,-17.00893 28.80287,-4.09056 82.39882,28.72619 109.99108,18.14286 27.59226,-10.58333 29.48215,-25.70238 58.58632,-19.65476 29.10416,6.04762 21.16666,25.70238 21.16666,25.70238 l 0.13174,96.62761 H -0.02362351 Z"
       id="path1518"
       inkscape:connector-curvature="0"
       sodipodi:nodetypes="csssssssscccc" />
    <path
       style="fill:#fffff7;stroke:#000000;stroke-width:0.26458335px;stroke-linecap:butt;stroke-linejoin:miter;stroke-opacity:1;fill-opacity:0.98994976"
       d="m 32.072345,57.526479 c 4.047746,-3.381559 4.664177,-6.061483 12.561669,-9.621703 7.897492,-3.56022 21.695542,-9.071906 35.48003,-6.949009 13.784488,2.122897 31.986676,-9.590196 46.838986,-4.543582 8.26787,2.80931 17.04271,9.413216 19.13548,17.890846 0.88309,3.577308 -0.74758,8.149226 -3.63385,10.439725 -5.94757,4.719888 -15.60506,5.234623 -22.65109,2.405425 -4.00399,-1.607726 -4.3122,-8.373924 -8.35217,-9.888971 -6.20256,-2.326048 -13.998805,-0.458825 -19.644315,3.006781 -5.019877,3.081549 -5.148166,11.492077 -10.289876,14.365737 -6.665528,3.72531 -12.960548,5.767789 -22.851547,1.603618 C 51.628015,73.272454 56.03528,66.433004 52.11756,63.940947 47.751832,61.163912 41.788003,62.99378 36.615927,63.139138 34.016895,63.212182 28.91231,60.166429 32.072345,57.526479 Z"
       id="path1520"
       inkscape:connector-curvature="0"
       sodipodi:nodetypes="szcaaaaaaasass" />
    <path
       style="fill:#ffffff;stroke:#000000;stroke-width:0.26458335px;stroke-linecap:butt;stroke-linejoin:miter;stroke-opacity:1;fill-opacity:0.98994976"
       d="m 300.9455,49.775661 c 15.95803,-11.58171 25.15572,-9.985291 48.37579,-11.75986 10.12107,-0.936555 12.97887,0.802832 16.57069,2.271792 16.14403,12.318041 5.24123,17.216738 26.45969,15.902539 17.40054,0 13.28744,-15.295522 39.155,-18.708869 11.47531,-1.451145 25.69741,-2.222192 32.20598,7.082644 0.32185,12.7699 9.3232,7.223995 17.63977,17.238884 8.92925,17.201474 1.90019,21.650022 -5.61266,24.588796 -4.99093,5.997238 -11.61584,10.7236 -22.98517,11.759862 -12.87559,-0.485051 -20.25662,-5.845701 -18.70888,-9.354434 6.54812,-7.750816 -7.48352,-15.501634 -7.48352,-15.501634 -10.15626,-4.543583 -29.66694,-0.53454 -29.66694,-0.53454 l -23.78697,10.958052 c 0,0 -15.50164,6.681737 -18.17433,7.216278 -18.7423,-0.04481 -28.42759,-6.306436 -41.29317,-15.367998 -2.3662,-6.93694 -4.54724,-12.129485 -13.22984,-15.902539 -4.33997,-3.296324 -2.92332,-6.592649 0.53456,-9.888973 z"
       id="path1522"
       inkscape:connector-curvature="0"
       sodipodi:nodetypes="ccccccccccccccccc" />
  </g>
</svg>
